<svg width="36" height="37" viewBox="0 0 36 37" fill="none" xmlns="http://www.w3.org/2000/svg">
<g id="Warehouse-1--Streamline-Plump" clip-path="url(#clip0_1077_162)">
<path id="Ellipse 2" d="M36 18.6892C36 28.6303 27.9411 36.6892 18 36.6892C8.05887 36.6892 0 28.6303 0 18.6892C0 8.74808 8.05887 0.689209 18 0.689209C27.9411 0.689209 36 8.74808 36 18.6892Z" fill="white"/>
<path id="Subtract" fill-rule="evenodd" clip-rule="evenodd" d="M11.1133 16.9623C12.2925 16.7745 14.4159 16.571 18.0003 16.571C21.5846 16.571 23.7081 16.7797 24.8872 16.9623C25.4403 17.051 25.8264 17.458 25.889 18.0528C25.9881 19.0337 26.0872 20.625 26.0872 23.0928C26.0872 25.1119 26.0194 26.6667 25.9412 27.8041C25.9099 28.1797 25.602 28.4667 25.2264 28.4719C23.4629 28.5241 21.042 28.571 18.0003 28.571C14.9585 28.571 12.5325 28.5241 10.7742 28.4719C10.3881 28.4615 10.0855 28.1641 10.0594 27.8041C9.98116 26.6667 9.91333 25.1119 9.91333 23.0928C9.91333 20.6302 10.0125 19.0337 10.1116 18.0528C10.169 17.458 10.5551 17.051 11.1133 16.9623Z" fill="white"/>
<path id="Subtract_2" fill-rule="evenodd" clip-rule="evenodd" d="M16.2153 7.33049C17.3527 6.82441 18.6519 6.82441 19.7893 7.33049C23.6553 9.04701 26.5823 11.2957 28.0953 12.6001C29.0188 13.3931 29.5197 14.5253 29.5823 15.7044C29.6553 17.0661 29.7388 19.1948 29.7388 21.527C29.7388 23.8592 29.6606 25.8835 29.5927 27.3235C29.5249 28.7688 28.3666 29.9218 26.9214 29.9792C25.1579 30.0522 22.1527 30.1357 18.0049 30.1357C13.8571 30.1357 10.8519 30.047 9.08839 29.9792C7.64317 29.9218 6.47969 28.7688 6.41708 27.3235C6.34926 25.8835 6.271 23.7548 6.271 21.527C6.271 19.2992 6.35969 17.0661 6.42752 15.7044C6.49013 14.5253 6.991 13.3931 7.91447 12.6001C9.42752 11.2957 12.3545 9.04701 16.2206 7.33049H16.2153ZM11.1127 16.9618C12.2919 16.774 14.4153 16.5705 17.9997 16.5705C21.584 16.5705 23.7075 16.7792 24.8866 16.9618C25.4397 17.0505 25.8258 17.4575 25.8884 18.0522C25.9875 19.0331 26.0866 20.6244 26.0866 23.0922C26.0866 25.1114 26.0188 26.6661 25.9406 27.8035C25.9093 28.1792 25.6014 28.4661 25.2258 28.4714C23.4623 28.5235 21.0414 28.5705 17.9997 28.5705C14.958 28.5705 12.5319 28.5235 10.7736 28.4714C10.3875 28.4609 10.0849 28.1635 10.0588 27.8035C9.98056 26.6661 9.91273 25.1114 9.91273 23.0922C9.91273 20.6296 10.0119 19.0331 10.111 18.0522C10.1684 17.4575 10.5545 17.0505 11.1127 16.9618Z" fill="#B3B3B3"/>
<path id="Rectangle_57" d="M12.2921 24.032C12.3234 23.5624 12.6469 23.2181 13.1112 23.1659C13.4921 23.1242 14.0556 23.0876 14.8695 23.0876C15.6834 23.0876 16.2469 23.1242 16.6277 23.1659C17.0921 23.2181 17.4156 23.5624 17.4469 24.032C17.4625 24.3085 17.4782 24.6842 17.4782 25.1746C17.4782 25.665 17.4625 26.0407 17.4469 26.3172C17.4156 26.7868 17.0973 27.1311 16.6277 27.1833C16.2469 27.225 15.6834 27.2616 14.8695 27.2616C14.0556 27.2616 13.4921 27.225 13.1112 27.1833C12.6469 27.1311 12.3234 26.7868 12.2921 26.3172C12.2712 25.9363 12.2556 25.5555 12.2608 25.1746C12.2608 24.6842 12.2764 24.3085 12.2921 24.032Z" fill="#B3B3B3"/>
<path id="Rectangle_58" d="M18.5528 24.032C18.5841 23.5624 18.9024 23.2181 19.372 23.1659C19.7528 23.1242 20.3163 23.0876 21.1302 23.0876C21.9441 23.0876 22.5076 23.1242 22.8885 23.1659C23.3528 23.2181 23.6763 23.5624 23.7076 24.032C23.7233 24.3085 23.7389 24.6842 23.7389 25.1746C23.7389 25.665 23.7233 26.0407 23.7076 26.3172C23.6763 26.7868 23.358 27.1311 22.8885 27.1833C22.5076 27.225 21.9441 27.2616 21.1302 27.2616C20.3163 27.2616 19.7528 27.225 19.372 27.1833C18.9076 27.1311 18.5841 26.7868 18.5528 26.3172C18.532 25.9363 18.5163 25.5555 18.5215 25.1746C18.5215 24.6842 18.5372 24.3085 18.5528 24.032Z" fill="#B3B3B3"/>
<path id="Rectangle_59" d="M15.4227 18.8145C15.454 18.3449 15.7723 18.0006 16.2418 17.9484C16.6227 17.9066 17.1862 17.8701 18.0001 17.8701C18.814 17.8701 19.3775 17.9066 19.7583 17.9484C20.2227 18.0006 20.5462 18.3449 20.5775 18.8145C20.5931 19.091 20.6088 19.4666 20.6088 19.9571C20.6088 20.4475 20.5931 20.8232 20.5775 21.0997C20.5462 21.5692 20.2279 21.9136 19.7583 21.9658C19.3775 22.0075 18.814 22.044 18.0001 22.044C17.1862 22.044 16.6227 22.0075 16.2418 21.9658C15.7775 21.9136 15.454 21.5692 15.4227 21.0997C15.4018 20.7188 15.3862 20.3379 15.3914 19.9571C15.3914 19.4666 15.407 19.091 15.4227 18.8145Z" fill="#B3B3B3"/>
</g>
<defs>
<clipPath id="clip0_1077_162">
<rect width="36" height="36" fill="white" transform="translate(0 0.689209)"/>
</clipPath>
</defs>
</svg>
