<svg width="90" height="90" viewBox="0 0 90 90" fill="none" xmlns="http://www.w3.org/2000/svg">
<rect width="90" height="90" rx="45" fill="#FF8000"/>
<path fill-rule="evenodd" clip-rule="evenodd" d="M25.3108 64.6867H64.6858C66.5492 64.6736 68.2851 63.7386 69.3214 62.1899C70.3576 60.6412 70.5596 58.6798 69.8608 56.9523L49.892 22.4992C48.9014 20.7087 47.0165 19.5974 44.9702 19.5974C42.9239 19.5974 41.039 20.7087 40.0483 22.4992L20.0795 56.9523C19.3944 58.6391 19.568 60.5531 20.5454 62.0891C21.5229 63.6251 23.1832 64.593 25.0014 64.6867" fill="white"/>
<path d="M25.3108 64.6867H64.6858C66.5492 64.6736 68.2851 63.7386 69.3214 62.1899C70.3576 60.6412 70.5596 58.6798 69.8608 56.9523L49.892 22.4992C48.9014 20.7087 47.0165 19.5974 44.9702 19.5974C42.9239 19.5974 41.039 20.7087 40.0483 22.4992L20.0795 56.9523C19.3944 58.6391 19.568 60.5531 20.5454 62.0891C21.5229 63.6251 23.1832 64.593 25.0014 64.6867" stroke="white" stroke-width="4.21875" stroke-linecap="round" stroke-linejoin="round"/>
<path d="M45 33.75V44.3856" stroke="#FF8000" stroke-width="6.42857" stroke-linecap="round" stroke-linejoin="round"/>
<path d="M45 54.9536L45 55.0873" stroke="#FF8000" stroke-width="6.42857" stroke-linecap="round" stroke-linejoin="round"/>
</svg>
